<svg width="16" height="16" viewBox="0 0 16 16" fill="none" xmlns="http://www.w3.org/2000/svg">
<path class="my-path" d="M7.82471 11.8027C5.65284 11.8027 3.89453 10.0425 3.89453 7.87255C3.89453 5.70067 5.65475 3.94237 7.82471 3.94237C9.99659 3.94237 11.7549 5.70259 11.7549 7.87255C11.7549 10.0444 9.99468 11.8027 7.82471 11.8027ZM7.82471 5.32157C6.41488 5.32157 5.27373 6.46335 5.27373 7.87255C5.27373 9.28175 6.41552 10.4235 7.82471 10.4235C9.23391 10.4235 10.3757 9.28175 10.3757 7.87255C10.3763 6.46335 9.23455 5.32157 7.82471 5.32157Z"/>
<path class="my-path" d="M10.9808 15.4802C9.57163 15.5459 6.08118 15.5428 4.67071 15.4802C3.43128 15.4221 2.338 15.1228 1.45661 14.2414C-0.0164099 12.7684 0.171866 10.7835 0.171866 7.87257C0.171866 4.89334 0.00592799 2.95442 1.45661 1.50374C2.93538 0.0256081 4.94897 0.21899 7.82545 0.21899C10.7766 0.21899 11.7952 0.217076 12.8387 0.621072C14.2575 1.17186 15.3284 2.44001 15.4331 4.71783C15.4995 6.12767 15.4956 9.61748 15.4331 11.028C15.3067 13.7168 13.8637 15.3475 10.9808 15.4802ZM13.2114 2.4783C12.2458 1.51267 10.9062 1.59883 7.80694 1.59883C4.61582 1.59883 3.33618 1.5516 2.40246 2.48788C1.32705 3.55818 1.52171 5.27692 1.52171 7.88279C1.52171 11.409 1.15984 13.9485 4.69879 14.1297C5.51189 14.1584 5.75122 14.168 7.79801 14.168L7.82673 14.1489C11.2278 14.1489 13.8962 14.505 14.0564 10.9667C14.0928 10.1593 14.1011 9.91681 14.1011 7.87321C14.1005 4.71911 14.1605 3.43181 13.2114 2.4783Z"/>
<path class="my-path" d="M11.9106 11.0401C12.4178 11.0401 12.829 11.4513 12.829 11.9585C12.829 12.4658 12.4178 12.877 11.9106 12.877C11.4034 12.877 10.9922 12.4658 10.9922 11.9585C10.9922 11.4513 11.4034 11.0401 11.9106 11.0401Z"/>
</svg>
