<svg width="15" height="13" viewBox="0 0 15 13" fill="none" xmlns="http://www.w3.org/2000/svg">
<path class="my-path" d="M4.71738 12.9999C10.378 12.9999 13.4736 7.99887 13.4736 3.66234C13.4736 3.52031 13.4708 3.37886 13.4649 3.23819C14.0657 2.7749 14.5879 2.19678 15 1.53873C14.4486 1.80021 13.8551 1.976 13.2327 2.05553C13.868 1.64908 14.3559 1.00639 14.5859 0.24025C13.9913 0.616178 13.3328 0.889296 12.6318 1.03681C12.0702 0.398916 11.2706 0 10.3853 0C8.68586 0 7.30759 1.46967 7.30759 3.28133C7.30759 3.53899 7.33465 3.78941 7.3874 4.02966C4.82965 3.89242 2.56151 2.5866 1.04381 0.60082C0.779625 1.08572 0.627167 1.64917 0.627167 2.25039C0.627167 3.38883 1.17049 4.39415 1.99662 4.98205C1.49173 4.96552 1.01748 4.81771 0.602858 4.57169C0.6024 4.58548 0.6024 4.59889 0.6024 4.61356C0.6024 6.20296 1.66318 7.53001 3.07153 7.83072C2.81285 7.90575 2.54068 7.94615 2.25998 7.94615C2.06203 7.94615 1.86903 7.92541 1.68153 7.88696C2.07331 9.19093 3.2095 10.1398 4.55648 10.1664C3.50313 11.0468 2.17623 11.5712 0.734126 11.5712C0.486084 11.5712 0.240886 11.5561 0 11.5257C1.36203 12.4567 2.97934 13 4.71747 13"/>
</svg>
