<svg width="17" height="16" viewBox="0 0 17 16" fill="none" xmlns="http://www.w3.org/2000/svg">
<path class="my-path" d="M2.01173 0.211914C0.836649 0.211914 0.0683594 0.983529 0.0683594 1.99771C0.0683594 2.98949 0.813762 3.78312 1.96664 3.78312H1.98894C3.187 3.78312 3.9326 2.98949 3.9326 1.99771C3.9102 0.983529 3.187 0.211914 2.01173 0.211914Z"/>
<path class="my-path" d="M0.271484 5.19336H3.70673V15.5284H0.271484V5.19336Z"/>
<path class="my-path" d="M12.1386 4.95117C10.2854 4.95117 9.04277 6.69256 9.04277 6.69256V5.19374H5.60742V15.5288H9.04257V9.75731C9.04257 9.44833 9.06497 9.13984 9.15574 8.91889C9.40407 8.30191 9.96921 7.66273 10.9183 7.66273C12.1613 7.66273 12.6585 8.6105 12.6585 9.99988V15.5288H16.0934V9.60287C16.0934 6.42838 14.3986 4.95117 12.1386 4.95117Z"/>
</svg>
