<svg width="16" height="16" viewBox="0 0 16 16" fill="none" xmlns="http://www.w3.org/2000/svg">
<path d="M7.66065 11.5918C5.48878 11.5918 3.73047 9.83157 3.73047 7.66161C3.73047 5.48974 5.49069 3.73143 7.66065 3.73143C9.83253 3.73143 11.5908 5.49165 11.5908 7.66161C11.5908 9.83349 9.83061 11.5918 7.66065 11.5918V11.5918ZM7.66065 5.11063C6.25082 5.11063 5.10967 6.25241 5.10967 7.66161C5.10967 9.07081 6.25145 10.2126 7.66065 10.2126C9.06985 10.2126 10.2116 9.07081 10.2116 7.66161C10.2123 6.25241 9.07049 5.11063 7.66065 5.11063V5.11063Z" fill="#FF1F40"/>
<path d="M10.8168 15.2693C9.40757 15.335 5.91712 15.3318 4.50665 15.2693C3.26721 15.2112 2.17394 14.9119 1.29255 14.0305C-0.180472 12.5575 0.00780373 10.5726 0.00780373 7.66164C0.00780373 4.68241 -0.158135 2.74348 1.29255 1.2928C2.77131 -0.185329 4.78491 0.0080525 7.66139 0.0080525C10.6125 0.0080525 11.6311 0.00613849 12.6746 0.410134C14.0934 0.960922 15.1643 2.22907 15.269 4.5069C15.3354 5.91673 15.3316 9.40654 15.269 10.817C15.1427 13.5059 13.6996 15.1365 10.8168 15.2693V15.2693ZM13.0474 2.26737C12.0817 1.30173 10.7421 1.38789 7.64288 1.38789C4.45176 1.38789 3.17212 1.34066 2.2384 2.27694C1.16299 3.34724 1.35765 5.06598 1.35765 7.67185C1.35765 11.198 0.995775 13.7375 4.53473 13.9188C5.34783 13.9475 5.58716 13.9571 7.63394 13.9571L7.66266 13.9379C11.0638 13.9379 13.7322 14.2941 13.8924 10.7557C13.9287 9.94839 13.937 9.70587 13.937 7.66228C13.9364 4.50817 13.9964 3.22087 13.0474 2.26737V2.26737Z" fill="#FF1F40"/>
<path d="M11.7475 10.8292C12.2547 10.8292 12.6659 11.2404 12.6659 11.7476C12.6659 12.2548 12.2547 12.666 11.7475 12.666C11.2403 12.666 10.8291 12.2548 10.8291 11.7476C10.8291 11.2404 11.2403 10.8292 11.7475 10.8292Z" fill="#FF1F40"/>
</svg>
